toy_leg_sim_states
version=1
nRows=38
nColumns=17
inDegrees=yes

# SIMM Motion File Header:
name toy_leg_sim_states
datacolumns 17
datarows 38
otherdata 1
range 7.35086101 7.40097088
endheader
time	/jointset/ground_block/xRotation/value	/jointset/ground_block/xRotation/speed	/jointset/ground_block/yRotation/value	/jointset/ground_block/yRotation/speed	/jointset/ground_block/zRotation/value	/jointset/ground_block/zRotation/speed	/jointset/ground_block/xTranslation/value	/jointset/ground_block/xTranslation/speed	/jointset/ground_block/yTranslation/value	/jointset/ground_block/yTranslation/speed	/jointset/ground_block/zTranslation/value	/jointset/ground_block/zTranslation/speed	/jointset/pin1/pin1_rot/value	/jointset/pin1/pin1_rot/speed	/jointset/pin2/pin2_rot/value	/jointset/pin2/pin2_rot/speed
      7.35086101	      0.00000000	      0.00000000	      0.00000000	      0.00000000	   -148.66797662	   -361.06089002	      1.08652907	     -0.62480895	     -0.88335592	      0.66762740	      0.00000000	      0.00000000	    -10.68292506	    418.95350767	    -42.37568346	   -208.34667633
      7.35201653	      0.00000000	      0.00000000	      0.00000000	      0.00000000	   -149.08526937	   -361.19637086	      1.08580729	     -0.62446520	     -0.88258369	      0.66894929	      0.00000000	      0.00000000	    -10.19901682	    418.60279238	    -42.61589671	   -207.42157372
      7.35317205	      0.00000000	      0.00000000	      0.00000000	      0.00000000	   -149.50271266	   -361.32144949	      1.08508591	     -0.62411640	     -0.88180998	      0.67018216	      0.00000000	      0.00000000	     -9.71552299	    418.23622602	    -42.85503421	   -206.48461537
      7.35432757	      0.00000000	      0.00000000	      0.00000000	      0.00000000	   -149.92029448	   -361.43613851	      1.08436494	     -0.62376267	     -0.88103491	      0.67132604	      0.00000000	      0.00000000	     -9.23246181	    417.85394555	    -43.09308239	   -205.53603061
      7.35548309	      0.00000000	      0.00000000	      0.00000000	      0.00000000	   -150.33800283	   -361.54045086	      1.08364437	     -0.62340411	     -0.88025856	      0.67238100	      0.00000000	      0.00000000	     -8.74985136	    417.45608402	    -43.33002794	   -204.57603870
      7.35663861	      0.00000000	      0.00000000	      0.00000000	      0.00000000	   -150.75582572	   -361.63439989	      1.08292422	     -0.62304083	     -0.87948104	      0.67334711	      0.00000000	      0.00000000	     -8.26770958	    417.04276888	    -43.56585779	   -203.60484555
      7.35779413	      0.00000000	      0.00000000	      0.00000000	      0.00000000	   -151.17375119	   -361.71799926	      1.08220450	     -0.62267294	     -0.87870246	      0.67422444	      0.00000000	      0.00000000	     -7.78605426	    416.61412087	    -43.80055912	   -202.62264169
      7.35894966	      0.00000000	      0.00000000	      0.00000000	      0.00000000	   -151.59176729	   -361.79126301	      1.08148520	     -0.62230056	     -0.87792291	      0.67501309	      0.00000000	      0.00000000	     -7.30490303	    416.17025348	    -44.03411930	   -201.62960161
      7.36010518	      0.00000000	      0.00000000	      0.00000000	      0.00000000	   -152.00986209	   -361.85420556	      1.08076634	     -0.62192380	     -0.87714251	      0.67571317	      0.00000000	      0.00000000	     -6.82427343	    415.71127306	    -44.26652589	   -200.62588443
      7.36126070	      0.00000000	      0.00000000	      0.00000000	      0.00000000	   -152.42802365	   -361.90684164	      1.08004791	     -0.62154281	     -0.87636135	      0.67632478	      0.00000000	      0.00000000	     -6.34418287	    415.23727960	    -44.49776665	   -199.61163581
      7.36264772	      0.00000000	      0.00000000	      0.00000000	      0.00000000	   -152.93003302	   -361.95643384	      1.07918614	     -0.62108027	     -0.87542283	      0.67694309	      0.00000000	      0.00000000	     -5.76864511	    414.64885890	    -44.77377728	   -198.38279345
      7.36403475	      0.00000000	      0.00000000	      0.00000000	      0.00000000	   -153.43210089	   -361.99122478	      1.07832501	     -0.62061185	     -0.87448354	      0.67743353	      0.00000000	      0.00000000	     -5.19393849	    414.03885317	    -45.04807148	   -197.13674932
      7.36542177	      0.00000000	      0.00000000	      0.00000000	      0.00000000	   -153.93420678	   -362.01124202	      1.07746454	     -0.62013797	     -0.87354366	      0.67779721	      0.00000000	      0.00000000	     -4.62009264	    413.40766479	    -45.32062753	   -195.87616799
      7.36680879	      0.00000000	      0.00000000	      0.00000000	      0.00000000	   -154.43633020	   -362.01651381	      1.07660472	     -0.61965887	     -0.87260336	      0.67803439	      0.00000000	      0.00000000	     -4.04713683	    412.75544805	    -45.59142539	   -194.60126179
      7.36819582	      0.00000000	      0.00000000	      0.00000000	      0.00000000	   -154.93845072	   -362.00706913	      1.07574558	     -0.61917479	     -0.87166282	      0.67814539	      0.00000000	      0.00000000	     -3.47510011	    412.08236082	    -45.86044535	   -193.31225471
      7.36958284	      0.00000000	      0.00000000	      0.00000000	      0.00000000	   -155.44054796	   -361.98293766	      1.07488711	     -0.61868595	     -0.87072221	      0.67813051	      0.00000000	      0.00000000	     -2.90401134	    411.38856576	    -46.12766799	   -192.00938036
      7.37096986	      0.00000000	      0.00000000	      0.00000000	      0.00000000	   -155.94260155	   -361.94414980	      1.07402932	     -0.61819259	     -0.86978171	      0.67799011	      0.00000000	      0.00000000	     -2.33389911	    410.67423060	    -46.39307425	   -190.69288183
      7.37235689	      0.00000000	      0.00000000	      0.00000000	      0.00000000	   -156.44459120	   -361.89073662	      1.07317221	     -0.61769492	     -0.86884150	      0.67772453	      0.00000000	      0.00000000	     -1.76479181	    409.93952719	    -46.65664539	   -189.36300895
      7.37374391	      0.00000000	      0.00000000	      0.00000000	      0.00000000	   -156.94649664	   -361.82272991	      1.07231580	     -0.61719318	     -0.86790174	      0.67733417	      0.00000000	      0.00000000	     -1.19671755	    409.18462957	    -46.91836303	   -188.02001378
      7.37513093	      0.00000000	      0.00000000	      0.00000000	      0.00000000	   -157.44829765	   -361.74016212	      1.07146009	     -0.61668758	     -0.86696260	      0.67681940	      0.00000000	      0.00000000	     -0.62970424	    408.40971158	    -47.17820913	   -186.66414520
      7.37651796	      0.00000000	      0.00000000	      0.00000000	      0.00000000	   -157.94997406	   -361.64306639	      1.07060509	     -0.61617836	     -0.86602427	      0.67618065	      0.00000000	      0.00000000	     -0.06377952	    407.61494431	    -47.43616599	   -185.29564361
      7.37790498	      0.00000000	      0.00000000	      0.00000000	      0.00000000	   -158.45150573	   -361.53147652	      1.06975079	     -0.61566573	     -0.86508690	      0.67541836	      0.00000000	      0.00000000	      0.50102919	    406.80049405	    -47.69221625	   -183.91473683
      7.37929200	      0.00000000	      0.00000000	      0.00000000	      0.00000000	   -158.95287260	   -361.40542701	      1.06889720	     -0.61514992	     -0.86415068	      0.67453297	      0.00000000	      0.00000000	      1.06469470	    405.96652086	    -47.94634283	   -182.52163758
      7.38067903	      0.00000000	      0.00000000	      0.00000000	      0.00000000	   -159.45405463	   -361.26495297	      1.06804433	     -0.61463117	     -0.86321578	      0.67352496	      0.00000000	      0.00000000	      1.62719004	    405.11317813	    -48.19852897	   -181.11654307
      7.38206605	      0.00000000	      0.00000000	      0.00000000	      0.00000000	   -159.95503183	   -361.11009022	      1.06719219	     -0.61410971	     -0.86228235	      0.67239483	      0.00000000	      0.00000000	      2.18848843	    404.24061300	    -48.44875814	   -179.69963649
      7.38345307	      0.00000000	      0.00000000	      0.00000000	      0.00000000	   -160.45578428	   -360.94087520	      1.06634077	     -0.61358577	     -0.86135058	      0.67114309	      0.00000000	      0.00000000	      2.74856333	    403.34896755	    -48.69701407	   -178.27109005
      7.38484010	      0.00000000	      0.00000000	      0.00000000	      0.00000000	   -160.95629209	   -360.75734503	      1.06549007	     -0.61305960	     -0.86042063	      0.66977026	      0.00000000	      0.00000000	      3.30738836	    402.43838052	    -48.94328073	   -176.83106884
      7.38622712	      0.00000000	      0.00000000	      0.00000000	      0.00000000	   -161.45653543	   -360.55953746	      1.06464011	     -0.61253142	     -0.85949266	      0.66827690	      0.00000000	      0.00000000	      3.86493733	    401.50898913	    -49.18754231	   -175.37973490
      7.38761414	      0.00000000	      0.00000000	      0.00000000	      0.00000000	   -161.95649453	   -360.34749088	      1.06379089	     -0.61200147	     -0.85856685	      0.66666357	      0.00000000	      0.00000000	      4.42118427	    400.56093079	    -49.42978322	   -173.91725075
      7.38900117	      0.00000000	      0.00000000	      0.00000000	      0.00000000	   -162.45614966	   -360.12124433	      1.06294239	     -0.61146998	     -0.85764336	      0.66493087	      0.00000000	      0.00000000	      4.97610337	    399.59434437	    -49.66998810	   -172.44378185
      7.39038819	      0.00000000	      0.00000000	      0.00000000	      0.00000000	   -162.95548116	   -359.88083748	      1.06209464	     -0.61093719	     -0.85672236	      0.66307940	      0.00000000	      0.00000000	      5.52966904	    398.60937091	    -49.90814184	   -170.95949764
      7.39177521	      0.00000000	      0.00000000	      0.00000000	      0.00000000	   -163.45446942	   -359.62631062	      1.06124763	     -0.61040330	     -0.85580401	      0.66110978	      0.00000000	      0.00000000	      6.08185587	    397.60615363	    -50.14422953	   -169.46457132
      7.39316224	      0.00000000	      0.00000000	      0.00000000	      0.00000000	   -163.95309487	   -359.35770466	      1.06040135	     -0.60986855	     -0.85488847	      0.65902264	      0.00000000	      0.00000000	      6.63263865	    396.58483744	    -50.37823655	   -167.95917832
      7.39454926	      0.00000000	      0.00000000	      0.00000000	      0.00000000	   -164.45133801	   -359.07506113	      1.05955582	     -0.60933316	     -0.85397590	      0.65681866	      0.00000000	      0.00000000	      7.18199238	    395.54556802	    -50.61014848	   -166.44349416
      7.39593628	      0.00000000	      0.00000000	      0.00000000	      0.00000000	   -164.94917941	   -358.77842217	      1.05871104	     -0.60879734	     -0.85306647	      0.65449849	      0.00000000	      0.00000000	      7.72989226	    394.48849071	    -50.83995117	   -164.91769191
      7.39761448	      0.00000000	      0.00000000	      0.00000000	      0.00000000	   -165.55096726	   -358.40086043	      1.05768990	     -0.60814899	     -0.85197056	      0.65153751	      0.00000000	      0.00000000	      8.39083326	    393.18594281	    -51.11515508	   -163.05981174
      7.39929268	      0.00000000	      0.00000000	      0.00000000	      0.00000000	   -166.15210440	   -358.00294987	      1.05666985	     -0.60750050	     -0.85087975	      0.64840815	      0.00000000	      0.00000000	      9.04956676	    391.85772764	    -51.38722781	   -161.18614094
      7.40097088	      0.00000000	      0.00000000	      0.00000000	      0.00000000	   -166.75255674	   -357.58476866	      1.05565088	     -0.60685242	     -0.84979434	      0.64511224	      0.00000000	      0.00000000	      9.70604994	    390.50414578	    -51.65614450	   -159.29833420
